<svg width="16" height="16" viewBox="0 0 16 16" fill="none" xmlns="http://www.w3.org/2000/svg">
<path d="M5.79133 9.89334C5.82009 9.91516 5.85524 9.92687 5.89133 9.92668H10.1133C10.1494 9.92687 10.1846 9.91516 10.2133 9.89334L15.3333 6.05468C15.3544 6.03886 15.3714 6.01827 15.383 5.99459C15.3946 5.97092 15.4004 5.94484 15.3999 5.91848C15.3995 5.89213 15.3928 5.86627 15.3804 5.84301C15.368 5.81975 15.3503 5.79976 15.3287 5.78468L8.57067 1.08468C8.40286 0.968647 8.20368 0.906494 7.99967 0.906494C7.79565 0.906494 7.59648 0.968647 7.42867 1.08468L0.675333 5.78268C0.653719 5.79776 0.635989 5.81775 0.623598 5.84101C0.611207 5.86427 0.60451 5.89013 0.604054 5.91648C0.603599 5.94284 0.609399 5.96892 0.620978 5.99259C0.632558 6.01627 0.649586 6.03686 0.670667 6.05268L5.79133 9.89334Z" fill="#9E9E9E"/>
<path d="M11.3887 10.262C11.3673 10.278 11.3501 10.2988 11.3385 10.3228C11.3269 10.3468 11.3212 10.3733 11.322 10.3999C11.3227 10.4266 11.3298 10.4526 11.3427 10.476C11.3555 10.4993 11.3738 10.5192 11.396 10.534L13.6127 12.0107C13.6681 12.0467 13.7158 12.0935 13.753 12.1481C13.7903 12.2027 13.8163 12.2642 13.8297 12.329C13.843 12.3937 13.8433 12.4605 13.8307 12.5254C13.818 12.5903 13.7926 12.6521 13.7559 12.7071C13.7193 12.7621 13.672 12.8093 13.617 12.8459C13.5619 12.8826 13.5002 12.9079 13.4353 12.9205C13.3704 12.9332 13.3036 12.9328 13.2388 12.9194C13.1741 12.906 13.1126 12.88 13.058 12.8427L10.224 10.9547C10.1965 10.9365 10.1643 10.9267 10.1313 10.9267H5.86667C5.8337 10.9267 5.80147 10.9365 5.774 10.9547L2.946 12.8427C2.83566 12.9145 2.70144 12.9399 2.57249 12.9134C2.44353 12.8868 2.33025 12.8105 2.25722 12.701C2.18419 12.5914 2.15731 12.4575 2.18242 12.3283C2.20753 12.199 2.2826 12.0849 2.39133 12.0107L4.60667 10.5333C4.6288 10.5187 4.64708 10.4989 4.65996 10.4757C4.67284 10.4525 4.67994 10.4265 4.68067 10.4C4.68135 10.3734 4.67566 10.3469 4.66406 10.3229C4.65246 10.2989 4.6353 10.278 4.614 10.262L0.266667 7.00001C0.241905 6.98144 0.212461 6.97013 0.181634 6.96735C0.150807 6.96457 0.119815 6.97043 0.0921311 6.98427C0.0644468 6.99811 0.041164 7.01939 0.0248915 7.04572C0.00861911 7.07205 0 7.10239 0 7.13334V13.76C0 14.1136 0.140476 14.4528 0.390524 14.7028C0.640573 14.9529 0.979711 15.0933 1.33333 15.0933H14.6667C15.0203 15.0933 15.3594 14.9529 15.6095 14.7028C15.8595 14.4528 16 14.1136 16 13.76V7.13734C16 7.10639 15.9914 7.07605 15.9751 7.04972C15.9588 7.02339 15.9356 7.00211 15.9079 6.98827C15.8802 6.97443 15.8492 6.96857 15.8184 6.97135C15.7875 6.97413 15.7581 6.98544 15.7333 7.00401L11.3887 10.262Z" fill="#9E9E9E"/>
</svg>
